<svg version="1" xmlns="http://www.w3.org/2000/svg" width="533.333" height="533.333" viewBox="0 0 400.000000 400.000000"><path d="M30.6 1.1c-6.2 1.5-15.3 6.8-19.7 11.6-2.2 2.4-5.5 7.4-7.2 11.1L.5 30.5.2 51.7-.2 73h86.6c85.9 0 86.6 0 86.6 2 0 1.5.7 2 2.5 2h2.5v35h-76v221H59v-2.5c0-1.8-.5-2.5-2-2.5-2 0-2-.7-2-105.5S55 117 57 117c1.5 0 2-.7 2-2.5V112H0l.2 128.8.3 128.8 3.7 7.6c4.5 9.1 10.3 14.7 19.6 19.1l6.7 3.2h339l6.7-3.2c9.3-4.4 15.1-10 19.6-19.1l3.7-7.6.3-48 .2-48.1-3.3 6c-13.7 25.2-35.9 42.8-63.4 50.3l-9.8 2.6-57.7.4-57.8.3v-2.5c0-1.9-.5-2.6-2-2.6-2 0-2-.7-2-127.6V72.9l58.3.4c56 .3 58.5.4 66.5 2.5 28.3 7.4 52.6 26.8 67.2 53.3l4 7.4-.2-53-.3-53-3.2-6.7c-4.4-9.3-10-15.1-19.1-19.6L369.6.5 202.1.3c-99 0-169.2.3-171.5.8z"/><path d="M251 204.9V296h3c2.3 0 3-.5 3-1.9 0-1.8 1.4-1.9 26.3-2.4 22.5-.4 27.3-.7 34-2.5 11.4-3.1 18.7-7.4 26.3-15.5 8.2-8.6 11.9-16.3 13.3-27.2 1.7-13.6 2.3-49 1.2-71.5-1.4-28.7-3.4-35.3-13.5-45.3-3-2.9-8.3-6.7-11.8-8.5-12-6-15.2-6.5-50-6.9l-31.8-.5v91.1z"/></svg>